<svg width="48" height="48" viewBox="0 0 48 48" fill="none" xmlns="http://www.w3.org/2000/svg">
<g clip-path="url(#clip0_971_3398)">
<path fill-rule="evenodd" clip-rule="evenodd" d="M28.9134 12.3896C27.0636 15.0264 25.8705 16.9701 25.334 18.2209C24.7975 19.4717 24.4218 21.1854 24.207 23.3621L28.7553 21.2971C29.2058 19.0249 29.4409 17.334 29.4606 16.2244C29.4803 15.1148 29.2979 13.8366 28.9134 12.3896Z" fill="#43ADC2"/>
<path fill-rule="evenodd" clip-rule="evenodd" d="M14.7175 35.2721C14.8287 35.4203 15.0463 35.6108 15.3703 35.8437C15.6943 36.0767 16.0276 36.2822 16.3703 36.4604C18.0328 37.0553 19.4435 37.2941 20.6024 37.1767C21.7612 37.0593 22.9051 36.5617 24.0339 35.684C24.4563 35.2189 24.8205 34.6918 25.1265 34.1027C25.4326 33.5136 25.6658 32.8907 25.8262 32.2342L26.5329 26.6854L28.3195 23.4756C24.2968 24.4279 22.2303 24.9362 22.1201 25.0004C22.0099 25.0646 20.362 26.1872 17.1766 28.368L16.4612 26.207L16.1798 26.0096L15.3703 27.0628L14.5203 29.723L13.6768 31.0709L13.9464 33.632L14.7175 35.2721Z" fill="white"/>
<path d="M25.0443 22.873C26.0681 22.4271 26.9189 21.7086 27.5965 20.7175C28.2803 19.6532 28.6528 18.4175 28.8424 17.1762C29.0854 15.585 29.1098 13.9965 28.9158 12.4106C28.915 12.4019 28.9202 12.3936 28.9284 12.3907C28.9366 12.3878 28.9456 12.391 28.95 12.3984L29.2632 12.8909C29.2603 12.8913 29.2572 12.8919 29.254 12.8927C29.251 12.8934 29.2502 12.8956 29.2514 12.8994L29.2528 12.9025C30.2289 15.047 30.4117 17.5704 29.8136 19.8681C29.4607 21.5329 28.72 23.114 27.5201 24.3407C27.4552 24.3179 27.4289 24.2654 27.4412 24.1832L27.5684 23.7652C27.5715 23.7539 27.5665 23.7418 27.5562 23.7361C27.546 23.7303 27.5331 23.7322 27.525 23.7408C26.7608 24.5826 25.7499 25.0937 24.681 25.4355L24.2209 25.5804L24.0647 25.6298C21.5133 26.4387 18.9177 27.3641 17.3558 29.7134C17.3516 29.7196 17.3445 29.7232 17.337 29.7232C17.3296 29.7232 17.3228 29.7192 17.3191 29.7128L17.2489 29.5984C16.7496 28.7821 16.1078 27.6495 16.1864 26.7049L16.1895 26.6713C16.1968 26.6001 16.2246 26.432 16.2727 26.1672C16.7 25.5162 17.2025 24.9269 17.7803 24.3993C18.2655 24.0185 18.7323 23.6163 19.1808 23.1928C19.1853 23.1883 19.1878 23.183 19.1882 23.1769C20.7541 23.5232 21.8231 23.6851 22.3952 23.6624C24.0053 23.5985 24.8762 22.9462 25.0443 22.873ZM15.8256 25.8309C15.3592 24.4668 15.1262 23.0793 14.9033 21.6649L14.8556 21.3614C14.5259 19.2596 13.4465 17.5698 11.9829 16.0363L11.0373 15.0879L10.0612 14.1902L9.20312 13.4469C10.2612 13.5038 11.2712 13.7506 12.233 14.1871C13.4085 14.725 14.4166 15.4829 15.2574 16.461C16.1797 17.5769 16.9442 18.7924 17.5509 20.1073C17.6398 20.2818 17.7272 20.4571 17.8143 20.6326L18.0005 21.0087L18.0919 21.1924C18.4275 21.8654 18.7736 22.5322 19.1894 23.161L19.1882 23.1769C19.1878 23.183 19.1853 23.1883 19.1808 23.1928C18.7323 23.6163 18.2655 24.0185 17.7803 24.3993C17.0643 24.8598 16.4504 25.4294 15.9387 26.108C15.9273 26.1235 15.9187 26.122 15.913 26.1037L15.8256 25.8309Z" fill="#D1ABD5"/>
<path d="M31.5724 17.2693C32.2623 18.9029 32.1987 22.3501 31.4844 23.9388C30.77 25.5276 29.4061 27.7579 28.2086 28.849C27.4955 29.3852 26.7773 30.1839 26.2473 30.8983C26.2803 30.1574 26.257 29.6834 26.4784 28.9735L27.0557 27.7029C26.4288 28.1246 25.7445 28.4719 24.9928 28.6019C24.316 28.7186 23.6405 28.8425 22.9665 28.9735C22.4365 29.1098 21.9329 29.3085 21.4559 29.5697C20.8117 29.9225 20.025 31.1622 19.0957 33.2887C19.1479 32.5791 19.2207 31.9707 19.314 31.4634C19.7648 29.0101 21.9868 27.9708 24.0803 27.252C25.687 26.6362 26.8135 25.8398 27.4417 24.1829C27.4301 24.2608 27.4531 24.312 27.5106 24.3365L27.5206 24.3404C28.7205 23.1138 29.4612 21.5326 29.8141 19.8678C30.4062 17.5931 30.2329 15.0971 29.2823 12.9667L29.2532 12.9022C29.2504 12.8965 29.2508 12.8933 29.2545 12.8925C29.2577 12.8916 29.2608 12.891 29.2636 12.8906C30.192 14.2666 30.9617 15.7261 31.5724 17.2693Z" fill="#43ADC2"/>
<path d="M15.3706 31.3236C15.1506 30.8836 14.994 30.6251 14.8827 30.5193C14.3111 29.9888 13.788 30.876 13.7898 31.4546C13.7916 32.0333 13.8412 32.6221 14.4228 32.931C14.7355 33.097 15.0664 33.072 15.4154 32.856C15.8387 32.2713 15.5906 31.7636 15.3706 31.3236ZM14.8185 35.2476C14.7877 35.2796 14.7369 35.2812 14.7041 35.2513C13.547 34.1931 13.2589 32.8419 13.5476 31.3236C13.7568 30.3594 14.0779 29.4338 14.5109 28.5469L13.5451 27.6492L12.5183 26.6246C10.9691 25.0605 9.66512 23.0942 9.46757 20.8234L9.45575 20.6863C9.39114 19.9277 9.32291 18.9728 9.25107 17.8215C9.17849 16.7344 9.12752 15.6461 9.09816 14.5566L9.03823 13.4093C9.0366 13.38 9.04903 13.3719 9.07554 13.3849L9.20336 13.4472L10.0614 14.1905L11.0376 15.0882L11.9831 16.0365C13.4467 17.5701 14.5262 19.2599 14.8558 21.3617L14.9195 21.7662C15.1377 23.1456 15.3706 24.4996 15.8258 25.8312L15.9133 26.104C15.919 26.1223 15.9275 26.1238 15.939 26.1083C16.4507 25.4297 17.0645 24.8601 17.7805 24.3996C17.2027 24.9272 16.7002 25.5165 16.2729 26.1675C16.0303 26.4818 15.8233 26.8166 15.652 27.1719L15.6222 27.2348C15.3844 27.7328 15.2695 28.2503 15.2772 28.7874C15.2956 30.036 16.1176 31.1302 16.1072 32.4044C16.1014 33.1298 15.8845 33.7976 15.4564 34.4079C15.2819 34.7069 15.0693 34.9868 14.8185 35.2476Z" fill="#43ADC2"/>
<path d="M27.0553 27.7031C26.7461 28.339 26.5625 28.8739 26.5042 29.3077C26.4169 29.9584 26.2785 31.0443 25.9519 31.8969C25.5014 33.0747 24.6904 33.9215 23.519 34.4374C21.9429 34.9726 20.3967 34.5942 19.0836 33.6489C19.0661 33.6363 19.0585 33.6192 19.061 33.5977L19.0952 33.2889C19.2231 32.1977 20.4793 30.1045 21.4554 29.5699C21.9325 29.3087 22.436 29.11 22.9661 28.9737C23.6401 28.8427 24.3155 28.7188 24.9923 28.602C25.744 28.4721 26.4284 28.1248 27.0553 27.7031ZM19.5845 32.999C19.7554 32.9481 19.9267 32.9147 20.0983 32.8987L20.1379 32.8953C20.1502 32.8944 20.1626 32.8935 20.1749 32.8927C20.2154 32.8902 20.2559 32.8886 20.2965 32.888L20.3361 32.8877C20.4437 32.8878 20.5514 32.8947 20.6593 32.9084C20.682 32.9113 20.7048 32.9146 20.7276 32.9181C20.7305 32.9185 20.7333 32.9189 20.7361 32.9194C20.7594 32.9231 20.7827 32.927 20.806 32.9313C20.888 32.9465 20.9701 32.9656 21.0523 32.9886C21.2689 33.013 21.5111 33.068 21.7062 33.0698L21.7377 33.0699L21.769 33.0695C22.3926 33.058 22.8826 32.7853 23.2389 32.2514C23.6884 31.5368 23.7679 30.7471 23.6921 29.9117C23.69 29.8869 23.6764 29.874 23.6511 29.8732C23.6118 29.8725 23.5597 29.8746 23.4947 29.8794L23.2945 29.8948C23.2594 29.8974 23.2241 29.9001 23.1887 29.9028L23.1245 29.9078C22.2878 29.9741 21.3705 30.0864 20.79 30.741C20.2151 31.3903 19.8971 32.1452 19.5821 32.9709L19.5845 32.999Z" fill="#D1ABD5"/>
<path d="M17.1266 34.9446C16.9174 34.7762 16.2734 34.1915 16.5156 33.923C16.6862 33.7338 17.3131 33.8187 17.551 33.8583C18.4164 34.0011 17.3896 34.7908 17.1859 34.9458C17.1659 34.9609 17.1461 34.9605 17.1266 34.9446Z" fill="#D1ABD5"/>
<path fill-rule="evenodd" clip-rule="evenodd" d="M3.49174 18.7607C1.27686 19.7715 0.538566 21.4522 1.27686 23.8028C2.01516 26.1534 2.44377 27.543 2.56269 27.9716C4.31783 26.2349 5.28462 24.6273 5.46306 23.1488C5.6415 21.6704 4.9844 20.2077 3.49174 18.7607Z" fill="#D1ABD5"/>
<path d="M24.9207 2C37.1146 2 46.9997 11.8634 46.9997 24.0305C46.9997 36.1354 37.2155 45.8997 25.1077 45.9992L25.1075 45.9985L25.1042 46H18.9729L18.9704 45.8627C19.0671 44.8112 19.5386 44.038 20.1875 43.2361C20.6931 42.7027 21.2413 42.2196 21.8321 41.7867L21.8989 41.7345L21.9972 41.6567L22.0622 41.6046C23.0759 40.7867 23.9043 39.8922 24.1587 38.5395C24.2325 38.0025 24.1705 37.483 23.9727 36.9809C23.8088 36.6709 23.6254 36.3725 23.4223 36.0857L24.0339 35.6841L24.1622 35.7638L24.2887 35.8432L24.4134 35.9223C25.5752 36.6637 26.295 37.2437 26.5727 37.6625C27.4652 39.0082 27.2518 40.2755 27.1372 40.741C27.7481 41.2935 28.1317 42.0917 28.1317 42.9792C28.1317 43.4513 27.9498 43.9044 27.5862 44.3386C37.4709 42.6041 44.9814 33.9941 44.9814 23.6338C44.9814 12.0228 35.5481 4.01387 23.9116 4.01387C12.4417 4.01387 3.11246 13.1588 2.84758 24.5399C2.84374 24.3708 2.8418 24.2009 2.8418 24.0305C2.8418 11.8634 12.7269 2 24.9207 2Z" fill="#43ADC2"/>
<path d="M18.9712 45.863L18.9736 45.9521L18.8819 45.9673L18.5736 45.7559L18.2654 45.545C17.0098 44.6858 15.9101 43.4921 15.485 42.0031C15.2865 41.1401 15.3474 40.2966 15.6679 39.4723C16.1064 38.5233 16.9749 37.3516 17.9492 36.8439L17.9645 36.8183C19.0662 36.8813 20.1671 36.8711 21.2672 36.7877C22.0329 36.6966 22.7515 36.4627 23.4231 36.0859C23.6092 36.3489 23.7789 36.6215 23.9321 36.9039L23.9735 36.9812C24.1713 37.4832 24.2332 38.0028 24.1594 38.5398C23.8915 39.9644 22.9869 40.8808 21.8997 41.7348L21.8329 41.787C21.2421 42.2199 20.6939 42.703 20.1883 43.2364C19.5394 44.0383 19.0678 44.8115 18.9712 45.863Z" fill="#D1ABD5"/>
<path d="M13.7894 39.7712C14.3215 38.249 15.1618 37.1496 16.3105 36.473C16.3398 36.4586 16.3739 36.457 16.4047 36.4687C16.9029 36.6559 17.4226 36.7724 17.9637 36.8184L17.9484 36.844C16.9853 37.3459 16.1256 38.4966 15.6824 39.4396L15.6671 39.4724C15.3523 40.282 15.2879 41.1102 15.4738 41.957L15.4842 42.0032C15.9049 43.477 16.9866 44.6615 18.2262 45.5187L18.2646 45.5452C18.4701 45.6855 18.6756 45.8263 18.8811 45.9675L12.7357 45.9754C12.7288 45.9752 12.7228 45.9707 12.7206 45.9641C12.7184 45.9576 12.7205 45.9504 12.7259 45.9461C13.6147 45.2972 14.5833 44.7988 15.6316 44.451C15.6548 44.4432 15.6606 44.4284 15.6487 44.4064L15.5454 44.2154C14.905 43.3122 12.9914 42.0545 13.7894 39.7712Z" fill="#43ADC2"/>
</g>
<defs>
<clipPath id="clip0_971_3398">
<rect width="46" height="44" fill="white" transform="translate(1 2)"/>
</clipPath>
</defs>
</svg>
